<svg xmlns="http://www.w3.org/2000/svg" xmlns:xlink="http://www.w3.org/1999/xlink" width="576" zoomAndPan="magnify" viewBox="0 0 432 287.999989" height="384" preserveAspectRatio="xMidYMid meet" version="1.0"><rect x="-43.2" width="518.4" fill="#ffffff" y="-28.799999" height="345.599986" fill-opacity="1"/><path fill="#51ade5" d="M 102.058594 187.597656 C 100.148438 189.023438 99.65625 191.621094 100.960938 193.367188 C 102.269531 195.113281 104.898438 195.375 106.808594 193.949219 L 110.957031 190.84375 L 106.207031 184.492188 L 102.058594 187.597656 " fill-opacity="1" fill-rule="nonzero"/><path fill="#fdfdfd" d="M 110.957031 190.84375 L 115.105469 187.738281 C 117.011719 186.3125 117.503906 183.714844 116.199219 181.96875 C 114.894531 180.222656 112.261719 179.960938 110.355469 181.390625 L 106.207031 184.492188 L 110.957031 190.84375 " fill-opacity="1" fill-rule="nonzero"/><path fill="#fdfdfd" d="M 115.304688 181.125 C 115.589844 181.273438 115.832031 181.476562 116.023438 181.734375 C 116.050781 181.769531 116.074219 181.804688 116.097656 181.839844 C 115.867188 181.558594 115.597656 181.320312 115.304688 181.125 M 100.402344 192.273438 C 100.507812 192.605469 100.660156 192.929688 100.863281 193.230469 C 100.839844 193.195312 100.8125 193.164062 100.789062 193.132812 C 100.597656 192.875 100.46875 192.585938 100.402344 192.273438 " fill-opacity="1" fill-rule="nonzero"/><path fill="#72bae8" d="M 109.097656 188.359375 L 110.210938 189.84375 L 106.058594 192.949219 C 105.0625 193.695312 103.933594 194.074219 102.945312 194.074219 C 102.09375 194.074219 101.34375 193.792969 100.863281 193.230469 C 100.660156 192.929688 100.507812 192.605469 100.402344 192.273438 C 100.402344 192.269531 100.402344 192.265625 100.402344 192.257812 C 100.8125 192.476562 101.300781 192.585938 101.832031 192.585938 C 102.820312 192.585938 103.949219 192.207031 104.949219 191.460938 L 109.097656 188.359375 " fill-opacity="1" fill-rule="nonzero"/><path fill="#ffffff" d="M 115.296875 181.117188 C 115.300781 181.121094 115.304688 181.121094 115.304688 181.125 C 115.597656 181.320312 115.867188 181.558594 116.097656 181.839844 C 116.976562 183.175781 116.21875 185.351562 114.359375 186.742188 L 110.210938 189.84375 L 109.097656 188.359375 L 113.246094 185.253906 C 114.78125 184.105469 115.566406 182.421875 115.296875 181.117188 " fill-opacity="1" fill-rule="nonzero"/></svg>